Genre: Drama | Mystery | Thriller
Language:English
IMDb:http://www.imdb.com/title/tt1399683/
Source:720p.BluRay.x264-DEPRAViTY

General
Complete name :Winters.Bone.2010.BRRip.H264.Feel-Free
Format : MPEG-4
Format profile : Base Media
Codec ID : isom
File size : 1.65 GiB
Duration : 1h 40mn
Overall bit rate : 2 352 Kbps

Video #1
Codec ID : avc1
Codec ID/Info : Advanced Video Coding
Duration : 1h 40mn
Bit rate mode : Variable
Bit rate : 2 035 Kbps
Width : 1 280 pixels
Height : 720 pixels
Display aspect ratio : 16:9
Frame rate mode : Constant
Frame rate : 23.976 fps
Resolution : 24 bits
Colorimetry : 4:2:0
Scan type : Progressive
Bits/(Pixel*Frame) : 0.092
Stream size : 1.42 GiB (86%)

Audio #2
ID : 2
Format : AAC
Format/Info : Advanced Audio Codec
Format version : Version 4
Format profile : LC
Format settings, SBR : No
Codec ID : 40
Duration : 1h 40mn
Bit rate mode : Variable
Bit rate : 320 Kbps
Channel(s) : 6 channels
Channel positions : Front: L C R, Rear: L R, LFE
Sampling rate : 48.0 KHz
Resolution : 16 bits
Stream size : 224 MiB (13%)

Plot:
An unflinching Ozark Mountain girl hacks through dangerous social terrain as she hunts down her drug-dealing father while trying to keep her family intact.

Screenshots:
 
http://www.postimg.com/image/23000/22559.jpg 
http://www.postimg.com/image/23000/22560.jpg


ENJOY!